<?xml version="1.0" encoding="UTF-8" standalone="no" ?>
<!DOCTYPE svg PUBLIC "-//W3C//DTD SVG 1.1//EN" "http://www.w3.org/Graphics/SVG/1.1/DTD/svg11.dtd">
<svg xmlns="http://www.w3.org/2000/svg" xmlns:xlink="http://www.w3.org/1999/xlink" version="1.1" width="500" height="500" viewBox="0 0 500 500" xml:space="preserve">
<desc>Created with Fabric.js 4.6.0</desc>
<defs>
</defs>
<g transform="matrix(1 0 0 1 250 250)" id="7eENZmvKdQXIA5RPIXkrr"  >
<g style="" vector-effect="non-scaling-stroke"   >
		<g transform="matrix(1 0 0 1 0 0)" id="O5SMENRBas5nOAFB3tNEc"  >
<path style="stroke: none; stroke-width: 1; stroke-dasharray: none; stroke-linecap: butt; stroke-dashoffset: 0; stroke-linejoin: miter; stroke-miterlimit: 4; fill: none; fill-rule: nonzero; opacity: 1;" vector-effect="non-scaling-stroke"  transform=" translate(-12, -12)" d="M 0 24 L 0 0 L 24 0 L 24 24 z" stroke-linecap="round" />
</g>
		<g transform="matrix(1 0 0 1 0.29 0.01)" id="PFgIE6lPEwRHAtj69FRd9"  >
<path style="stroke: none; stroke-width: 1; stroke-dasharray: none; stroke-linecap: butt; stroke-dashoffset: 0; stroke-linejoin: miter; stroke-miterlimit: 4; fill: rgb(29,29,29); fill-rule: evenodd; opacity: 1;" vector-effect="non-scaling-stroke"  transform=" translate(-12.29, -12.01)" d="M 9.29 15.88 L 13.17 12 L 9.29 8.12 C 8.9 7.73 8.9 7.1 9.29 6.71 C 9.68 6.32 10.31 6.32 10.7 6.71 L 15.29 11.3 C 15.68 11.69 15.68 12.32 15.29 12.71 L 10.7 17.3 C 10.31 17.69 9.68 17.69 9.29 17.3 C 8.91 16.91 8.9 16.27 9.29 15.88 Z" stroke-linecap="round" />
</g>
</g>
</g>
</svg>